<svg xmlns="http://www.w3.org/2000/svg" width="33" height="32" viewBox="0 0 33 32">
    <path fill="#535353" fill-rule="evenodd" d="M16.772.173C7.926.173.753 7.379.753 16.267A16.09 16.09 0 0 0 11.709 31.54c.801.147 1.054-.33 1.054-.757 0-.382.008-1.45 0-2.794-4.456.973-5.38-2.12-5.38-2.12-.727-1.859-1.777-2.354-1.777-2.354-1.454-.998.11-.979.11-.979 1.607.114 2.454 1.66 2.454 1.66 1.43 2.457 3.749 1.747 4.66 1.337.147-1.04.562-1.75 1.02-2.152-3.558-.407-7.297-1.787-7.297-7.955 0-1.757.624-3.193 1.648-4.318-.165-.406-.716-2.043.157-4.26 0 0 1.345-.432 4.405 1.651a15.267 15.267 0 0 1 4.01-.54c1.362.005 2.732.183 4.012.54 3.06-2.082 4.402-1.65 4.402-1.65.873 2.216.324 3.853.16 4.26 1.024 1.124 1.646 2.56 1.646 4.317 0 6.184-3.746 7.544-7.315 7.941.575.498 1.097 1.464 1.097 2.965v4.455c0 .431.258.907 1.071.751a16.092 16.092 0 0 0 10.946-15.27C32.792 7.38 25.62.173 16.772.173z" opacity=".6"/>
</svg>
