<svg xmlns="http://www.w3.org/2000/svg" width="32" height="32" viewBox="0 0 32 32">
    <g fill="#535353" fill-rule="nonzero" opacity=".6">
        <path d="M20.687 8.531h-9.46a2.742 2.742 0 0 0-2.739 2.739v9.46a2.742 2.742 0 0 0 2.739 2.74h9.46a2.742 2.742 0 0 0 2.74-2.74v-9.46a2.742 2.742 0 0 0-2.74-2.739zm-4.73 12.387A4.923 4.923 0 0 1 11.04 16a4.923 4.923 0 0 1 4.917-4.917A4.923 4.923 0 0 1 20.875 16a4.924 4.924 0 0 1-4.918 4.918zm5.076-8.819a1.165 1.165 0 0 1-1.164-1.163 1.165 1.165 0 0 1 2.327 0c0 .641-.522 1.163-1.163 1.163z"/>
        <path d="M15.957 13.16a2.843 2.843 0 0 0-2.84 2.84 2.844 2.844 0 0 0 2.84 2.84 2.843 2.843 0 0 0 2.84-2.84 2.843 2.843 0 0 0-2.84-2.84z"/>
        <path d="M15.957.086C7.192.086.087 7.192.087 15.957s7.105 15.871 15.87 15.871c8.765 0 15.871-7.106 15.871-15.87 0-8.766-7.106-15.872-15.87-15.872zm9.547 20.644a4.822 4.822 0 0 1-4.817 4.817h-9.46A4.822 4.822 0 0 1 6.41 20.73v-9.46a4.822 4.822 0 0 1 4.817-4.817h9.46a4.822 4.822 0 0 1 4.817 4.817v9.46z"/>
    </g>
</svg>
