<svg xmlns="http://www.w3.org/2000/svg" width="33" height="33" viewBox="0 0 33 33">
    <g fill="none" fill-rule="evenodd" opacity=".6">
        <path fill="#535353" d="M16.82.173C7.97.173.794 7.38.794 16.27S7.97 32.368 16.82 32.368c8.85 0 16.024-7.208 16.024-16.098 0-8.89-7.174-16.097-16.024-16.097z"/>
        <path fill="#FFF" d="M25.125 23.255V17.08c0-3.308-1.757-4.847-4.102-4.847-1.891 0-2.739 1.045-3.21 1.779v-1.526h-3.564c.047 1.01 0 10.769 0 10.769h3.564V17.24c0-.32.023-.643.117-.872.257-.643.843-1.309 1.828-1.309 1.29 0 1.805.987 1.805 2.435v5.762l3.562-.001zm-14.63-12.24c1.242 0 2.016-.827 2.016-1.86-.023-1.057-.774-1.861-1.993-1.861s-2.015.804-2.015 1.86c0 1.035.773 1.862 1.97 1.862h.022zm1.781 12.24v-10.77H8.714v10.77h3.562z"/>
    </g>
</svg>
